<?xml version="1.0" standalone="no"?>
 <!DOCTYPE svg PUBLIC "-//W3C//DTD SVG 1.1//EN" 
 "http://www.w3.org/Graphics/SVG/1.1/DTD/svg11.dtd"> 
<svg xmlns="http://www.w3.org/2000/svg" version="1.1" 
    width="29.7002cm" height="21.0007cm" viewBox="0 0 116930 82680 ">
<title>SVG Picture created as Ampli_10W_Txutxi_version-F_SilkS.svg date 2014/04/27 13:36:40 </title>
  <desc>Picture generated by PCBNEW </desc>
<g style="fill:#000000; fill-opacity:1;stroke:#000000; stroke-opacity:1;
stroke-linecap:round; stroke-linejoin:round; "
 transform="translate(0 0) scale(1 1)">
</g>
<g style="fill:#000000; fill-opacity:0.0; 
stroke:#000000; stroke-width:39.3701; stroke-opacity:1; 
stroke-linecap:round; stroke-linejoin:round;">
</g>
<g style="fill:#000000; fill-opacity:0.0; 
stroke:#000000; stroke-width:59.0551; stroke-opacity:1; 
stroke-linecap:round; stroke-linejoin:round;">
<rect x="69685.9" y="65357.2" width="42519.7" height="12598.4" rx="0" />
</g>
<g style="fill:#000000; fill-opacity:0.0; 
stroke:#000000; stroke-width:39.3701; stroke-opacity:1; 
stroke-linecap:round; stroke-linejoin:round;">
</g>
<g style="fill:#000000; fill-opacity:0.0; 
stroke:#000000; stroke-width:59.0551; stroke-opacity:1; 
stroke-linecap:round; stroke-linejoin:round;">
<rect x="3937.01" y="3937.01" width="109056" height="74806" rx="0" />
</g>
<g style="fill:#000000; fill-opacity:0.0; 
stroke:#000000; stroke-width:39.3701; stroke-opacity:1; 
stroke-linecap:round; stroke-linejoin:round;">
</g>
<g style="fill:#000000; fill-opacity:0.0; 
stroke:#000000; stroke-width:59.0551; stroke-opacity:1; 
stroke-linecap:round; stroke-linejoin:round;">
<rect x="4724.41" y="4724.41" width="107481" height="73231.2" rx="0" />
</g>
<g style="fill:#000000; fill-opacity:0.0; 
stroke:#000000; stroke-width:39.3701; stroke-opacity:1; 
stroke-linecap:round; stroke-linejoin:round;">
</g>
<g style="fill:#000000; fill-opacity:0.0; 
stroke:#000000; stroke-width:59.0551; stroke-opacity:1; 
stroke-linecap:round; stroke-linejoin:round;">
<path d="M23622 4724
L23622 3937
" />
</g>
<g style="fill:#000000; fill-opacity:0.0; 
stroke:#000000; stroke-width:39.3701; stroke-opacity:1; 
stroke-linecap:round; stroke-linejoin:round;">
</g>
<g style="fill:#000000; fill-opacity:0.0; 
stroke:#000000; stroke-width:59.0551; stroke-opacity:1; 
stroke-linecap:round; stroke-linejoin:round;">
<path d="M43307 4724
L43307 3937
" />
</g>
<g style="fill:#000000; fill-opacity:0.0; 
stroke:#000000; stroke-width:39.3701; stroke-opacity:1; 
stroke-linecap:round; stroke-linejoin:round;">
</g>
<g style="fill:#000000; fill-opacity:0.0; 
stroke:#000000; stroke-width:59.0551; stroke-opacity:1; 
stroke-linecap:round; stroke-linejoin:round;">
<path d="M62992 4724
L62992 3937
" />
</g>
<g style="fill:#000000; fill-opacity:0.0; 
stroke:#000000; stroke-width:39.3701; stroke-opacity:1; 
stroke-linecap:round; stroke-linejoin:round;">
</g>
<g style="fill:#000000; fill-opacity:0.0; 
stroke:#000000; stroke-width:59.0551; stroke-opacity:1; 
stroke-linecap:round; stroke-linejoin:round;">
<path d="M82677 4724
L82677 3937
" />
</g>
<g style="fill:#000000; fill-opacity:0.0; 
stroke:#000000; stroke-width:39.3701; stroke-opacity:1; 
stroke-linecap:round; stroke-linejoin:round;">
</g>
<g style="fill:#000000; fill-opacity:0.0; 
stroke:#000000; stroke-width:59.0551; stroke-opacity:1; 
stroke-linecap:round; stroke-linejoin:round;">
<path d="M102362 4724
L102362 3937
" />
</g>
<g style="fill:#000000; fill-opacity:0.0; 
stroke:#000000; stroke-width:39.3701; stroke-opacity:1; 
stroke-linecap:round; stroke-linejoin:round;">
</g>
<g style="fill:#000000; fill-opacity:0.0; 
stroke:#000000; stroke-width:59.0551; stroke-opacity:1; 
stroke-linecap:round; stroke-linejoin:round;">
<path d="M14169 4562
L13877 4562
" />
<path d="M14023 4562
L14023 4050
L13974 4123
L13925 4172
L13877 4196
" />
</g>
<g style="fill:#000000; fill-opacity:0.0; 
stroke:#000000; stroke-width:39.3701; stroke-opacity:1; 
stroke-linecap:round; stroke-linejoin:round;">
</g>
<g style="fill:#000000; fill-opacity:0.0; 
stroke:#000000; stroke-width:59.0551; stroke-opacity:1; 
stroke-linecap:round; stroke-linejoin:round;">
<path d="M33562 4099
L33586 4074
L33635 4050
L33757 4050
L33805 4074
L33830 4099
L33854 4147
L33854 4196
L33830 4269
L33537 4562
L33854 4562
" />
</g>
<g style="fill:#000000; fill-opacity:0.0; 
stroke:#000000; stroke-width:39.3701; stroke-opacity:1; 
stroke-linecap:round; stroke-linejoin:round;">
</g>
<g style="fill:#000000; fill-opacity:0.0; 
stroke:#000000; stroke-width:59.0551; stroke-opacity:1; 
stroke-linecap:round; stroke-linejoin:round;">
<path d="M53222 4050
L53539 4050
L53368 4245
L53442 4245
L53490 4269
L53515 4294
L53539 4342
L53539 4464
L53515 4513
L53490 4537
L53442 4562
L53295 4562
L53247 4537
L53222 4513
" />
</g>
<g style="fill:#000000; fill-opacity:0.0; 
stroke:#000000; stroke-width:39.3701; stroke-opacity:1; 
stroke-linecap:round; stroke-linejoin:round;">
</g>
<g style="fill:#000000; fill-opacity:0.0; 
stroke:#000000; stroke-width:59.0551; stroke-opacity:1; 
stroke-linecap:round; stroke-linejoin:round;">
<path d="M73175 4221
L73175 4562
" />
<path d="M73053 4026
L72932 4391
L73248 4391
" />
</g>
<g style="fill:#000000; fill-opacity:0.0; 
stroke:#000000; stroke-width:39.3701; stroke-opacity:1; 
stroke-linecap:round; stroke-linejoin:round;">
</g>
<g style="fill:#000000; fill-opacity:0.0; 
stroke:#000000; stroke-width:59.0551; stroke-opacity:1; 
stroke-linecap:round; stroke-linejoin:round;">
<path d="M92885 4050
L92641 4050
L92617 4294
L92641 4269
L92690 4245
L92812 4245
L92860 4269
L92885 4294
L92909 4342
L92909 4464
L92885 4513
L92860 4537
L92812 4562
L92690 4562
L92641 4537
L92617 4513
" />
</g>
<g style="fill:#000000; fill-opacity:0.0; 
stroke:#000000; stroke-width:39.3701; stroke-opacity:1; 
stroke-linecap:round; stroke-linejoin:round;">
</g>
<g style="fill:#000000; fill-opacity:0.0; 
stroke:#000000; stroke-width:59.0551; stroke-opacity:1; 
stroke-linecap:round; stroke-linejoin:round;">
<path d="M112545 4050
L112448 4050
L112399 4074
L112375 4099
L112326 4172
L112302 4269
L112302 4464
L112326 4513
L112350 4537
L112399 4562
L112497 4562
L112545 4537
L112570 4513
L112594 4464
L112594 4342
L112570 4294
L112545 4269
L112497 4245
L112399 4245
L112350 4269
L112326 4294
L112302 4342
" />
</g>
<g style="fill:#000000; fill-opacity:0.0; 
stroke:#000000; stroke-width:39.3701; stroke-opacity:1; 
stroke-linecap:round; stroke-linejoin:round;">
</g>
<g style="fill:#000000; fill-opacity:0.0; 
stroke:#000000; stroke-width:59.0551; stroke-opacity:1; 
stroke-linecap:round; stroke-linejoin:round;">
<path d="M23622 77955
L23622 78742
" />
</g>
<g style="fill:#000000; fill-opacity:0.0; 
stroke:#000000; stroke-width:39.3701; stroke-opacity:1; 
stroke-linecap:round; stroke-linejoin:round;">
</g>
<g style="fill:#000000; fill-opacity:0.0; 
stroke:#000000; stroke-width:59.0551; stroke-opacity:1; 
stroke-linecap:round; stroke-linejoin:round;">
<path d="M43307 77955
L43307 78742
" />
</g>
<g style="fill:#000000; fill-opacity:0.0; 
stroke:#000000; stroke-width:39.3701; stroke-opacity:1; 
stroke-linecap:round; stroke-linejoin:round;">
</g>
<g style="fill:#000000; fill-opacity:0.0; 
stroke:#000000; stroke-width:59.0551; stroke-opacity:1; 
stroke-linecap:round; stroke-linejoin:round;">
<path d="M62992 77955
L62992 78742
" />
</g>
<g style="fill:#000000; fill-opacity:0.0; 
stroke:#000000; stroke-width:39.3701; stroke-opacity:1; 
stroke-linecap:round; stroke-linejoin:round;">
</g>
<g style="fill:#000000; fill-opacity:0.0; 
stroke:#000000; stroke-width:59.0551; stroke-opacity:1; 
stroke-linecap:round; stroke-linejoin:round;">
<path d="M82677 77955
L82677 78742
" />
</g>
<g style="fill:#000000; fill-opacity:0.0; 
stroke:#000000; stroke-width:39.3701; stroke-opacity:1; 
stroke-linecap:round; stroke-linejoin:round;">
</g>
<g style="fill:#000000; fill-opacity:0.0; 
stroke:#000000; stroke-width:59.0551; stroke-opacity:1; 
stroke-linecap:round; stroke-linejoin:round;">
<path d="M102362 77955
L102362 78742
" />
</g>
<g style="fill:#000000; fill-opacity:0.0; 
stroke:#000000; stroke-width:39.3701; stroke-opacity:1; 
stroke-linecap:round; stroke-linejoin:round;">
</g>
<g style="fill:#000000; fill-opacity:0.0; 
stroke:#000000; stroke-width:59.0551; stroke-opacity:1; 
stroke-linecap:round; stroke-linejoin:round;">
<path d="M14169 78580
L13877 78580
" />
<path d="M14023 78580
L14023 78069
L13974 78142
L13925 78190
L13877 78215
" />
</g>
<g style="fill:#000000; fill-opacity:0.0; 
stroke:#000000; stroke-width:39.3701; stroke-opacity:1; 
stroke-linecap:round; stroke-linejoin:round;">
</g>
<g style="fill:#000000; fill-opacity:0.0; 
stroke:#000000; stroke-width:59.0551; stroke-opacity:1; 
stroke-linecap:round; stroke-linejoin:round;">
<path d="M33562 78117
L33586 78093
L33635 78069
L33757 78069
L33805 78093
L33830 78117
L33854 78166
L33854 78215
L33830 78288
L33537 78580
L33854 78580
" />
</g>
<g style="fill:#000000; fill-opacity:0.0; 
stroke:#000000; stroke-width:39.3701; stroke-opacity:1; 
stroke-linecap:round; stroke-linejoin:round;">
</g>
<g style="fill:#000000; fill-opacity:0.0; 
stroke:#000000; stroke-width:59.0551; stroke-opacity:1; 
stroke-linecap:round; stroke-linejoin:round;">
<path d="M53222 78069
L53539 78069
L53368 78263
L53442 78263
L53490 78288
L53515 78312
L53539 78361
L53539 78483
L53515 78532
L53490 78556
L53442 78580
L53295 78580
L53247 78556
L53222 78532
" />
</g>
<g style="fill:#000000; fill-opacity:0.0; 
stroke:#000000; stroke-width:39.3701; stroke-opacity:1; 
stroke-linecap:round; stroke-linejoin:round;">
</g>
<g style="fill:#000000; fill-opacity:0.0; 
stroke:#000000; stroke-width:59.0551; stroke-opacity:1; 
stroke-linecap:round; stroke-linejoin:round;">
<path d="M73175 78239
L73175 78580
" />
<path d="M73053 78044
L72932 78410
L73248 78410
" />
</g>
<g style="fill:#000000; fill-opacity:0.0; 
stroke:#000000; stroke-width:39.3701; stroke-opacity:1; 
stroke-linecap:round; stroke-linejoin:round;">
</g>
<g style="fill:#000000; fill-opacity:0.0; 
stroke:#000000; stroke-width:59.0551; stroke-opacity:1; 
stroke-linecap:round; stroke-linejoin:round;">
<path d="M92885 78069
L92641 78069
L92617 78312
L92641 78288
L92690 78263
L92812 78263
L92860 78288
L92885 78312
L92909 78361
L92909 78483
L92885 78532
L92860 78556
L92812 78580
L92690 78580
L92641 78556
L92617 78532
" />
</g>
<g style="fill:#000000; fill-opacity:0.0; 
stroke:#000000; stroke-width:39.3701; stroke-opacity:1; 
stroke-linecap:round; stroke-linejoin:round;">
</g>
<g style="fill:#000000; fill-opacity:0.0; 
stroke:#000000; stroke-width:59.0551; stroke-opacity:1; 
stroke-linecap:round; stroke-linejoin:round;">
<path d="M112545 78069
L112448 78069
L112399 78093
L112375 78117
L112326 78190
L112302 78288
L112302 78483
L112326 78532
L112350 78556
L112399 78580
L112497 78580
L112545 78556
L112570 78532
L112594 78483
L112594 78361
L112570 78312
L112545 78288
L112497 78263
L112399 78263
L112350 78288
L112326 78312
L112302 78361
" />
</g>
<g style="fill:#000000; fill-opacity:0.0; 
stroke:#000000; stroke-width:39.3701; stroke-opacity:1; 
stroke-linecap:round; stroke-linejoin:round;">
</g>
<g style="fill:#000000; fill-opacity:0.0; 
stroke:#000000; stroke-width:59.0551; stroke-opacity:1; 
stroke-linecap:round; stroke-linejoin:round;">
<path d="M3937 23622
L4724 23622
" />
</g>
<g style="fill:#000000; fill-opacity:0.0; 
stroke:#000000; stroke-width:39.3701; stroke-opacity:1; 
stroke-linecap:round; stroke-linejoin:round;">
</g>
<g style="fill:#000000; fill-opacity:0.0; 
stroke:#000000; stroke-width:59.0551; stroke-opacity:1; 
stroke-linecap:round; stroke-linejoin:round;">
<path d="M3937 43307
L4724 43307
" />
</g>
<g style="fill:#000000; fill-opacity:0.0; 
stroke:#000000; stroke-width:39.3701; stroke-opacity:1; 
stroke-linecap:round; stroke-linejoin:round;">
</g>
<g style="fill:#000000; fill-opacity:0.0; 
stroke:#000000; stroke-width:59.0551; stroke-opacity:1; 
stroke-linecap:round; stroke-linejoin:round;">
<path d="M3937 62992
L4724 62992
" />
</g>
<g style="fill:#000000; fill-opacity:0.0; 
stroke:#000000; stroke-width:39.3701; stroke-opacity:1; 
stroke-linecap:round; stroke-linejoin:round;">
</g>
<g style="fill:#000000; fill-opacity:0.0; 
stroke:#000000; stroke-width:59.0551; stroke-opacity:1; 
stroke-linecap:round; stroke-linejoin:round;">
<path d="M4208 13864
L4452 13864
" />
<path d="M4160 14011
L4330 13499
L4501 14011
" />
</g>
<g style="fill:#000000; fill-opacity:0.0; 
stroke:#000000; stroke-width:39.3701; stroke-opacity:1; 
stroke-linecap:round; stroke-linejoin:round;">
</g>
<g style="fill:#000000; fill-opacity:0.0; 
stroke:#000000; stroke-width:59.0551; stroke-opacity:1; 
stroke-linecap:round; stroke-linejoin:round;">
<path d="M4367 33428
L4440 33452
L4464 33476
L4489 33525
L4489 33598
L4464 33647
L4440 33671
L4391 33696
L4196 33696
L4196 33184
L4367 33184
L4416 33208
L4440 33233
L4464 33281
L4464 33330
L4440 33379
L4416 33403
L4367 33428
L4196 33428
" />
</g>
<g style="fill:#000000; fill-opacity:0.0; 
stroke:#000000; stroke-width:39.3701; stroke-opacity:1; 
stroke-linecap:round; stroke-linejoin:round;">
</g>
<g style="fill:#000000; fill-opacity:0.0; 
stroke:#000000; stroke-width:59.0551; stroke-opacity:1; 
stroke-linecap:round; stroke-linejoin:round;">
<path d="M4489 53332
L4464 53356
L4391 53381
L4342 53381
L4269 53356
L4221 53308
L4196 53259
L4172 53161
L4172 53088
L4196 52991
L4221 52942
L4269 52893
L4342 52869
L4391 52869
L4464 52893
L4489 52918
" />
</g>
<g style="fill:#000000; fill-opacity:0.0; 
stroke:#000000; stroke-width:39.3701; stroke-opacity:1; 
stroke-linecap:round; stroke-linejoin:round;">
</g>
<g style="fill:#000000; fill-opacity:0.0; 
stroke:#000000; stroke-width:59.0551; stroke-opacity:1; 
stroke-linecap:round; stroke-linejoin:round;">
<path d="M4196 73066
L4196 72554
L4318 72554
L4391 72578
L4440 72627
L4464 72676
L4489 72773
L4489 72846
L4464 72944
L4440 72993
L4391 73041
L4318 73066
L4196 73066
" />
</g>
<g style="fill:#000000; fill-opacity:0.0; 
stroke:#000000; stroke-width:39.3701; stroke-opacity:1; 
stroke-linecap:round; stroke-linejoin:round;">
</g>
<g style="fill:#000000; fill-opacity:0.0; 
stroke:#000000; stroke-width:59.0551; stroke-opacity:1; 
stroke-linecap:round; stroke-linejoin:round;">
<path d="M112992 23622
L112205 23622
" />
</g>
<g style="fill:#000000; fill-opacity:0.0; 
stroke:#000000; stroke-width:39.3701; stroke-opacity:1; 
stroke-linecap:round; stroke-linejoin:round;">
</g>
<g style="fill:#000000; fill-opacity:0.0; 
stroke:#000000; stroke-width:59.0551; stroke-opacity:1; 
stroke-linecap:round; stroke-linejoin:round;">
<path d="M112992 43307
L112205 43307
" />
</g>
<g style="fill:#000000; fill-opacity:0.0; 
stroke:#000000; stroke-width:39.3701; stroke-opacity:1; 
stroke-linecap:round; stroke-linejoin:round;">
</g>
<g style="fill:#000000; fill-opacity:0.0; 
stroke:#000000; stroke-width:59.0551; stroke-opacity:1; 
stroke-linecap:round; stroke-linejoin:round;">
<path d="M112992 62992
L112205 62992
" />
</g>
<g style="fill:#000000; fill-opacity:0.0; 
stroke:#000000; stroke-width:39.3701; stroke-opacity:1; 
stroke-linecap:round; stroke-linejoin:round;">
</g>
<g style="fill:#000000; fill-opacity:0.0; 
stroke:#000000; stroke-width:59.0551; stroke-opacity:1; 
stroke-linecap:round; stroke-linejoin:round;">
<path d="M112477 13864
L112721 13864
" />
<path d="M112428 14011
L112599 13499
L112769 14011
" />
</g>
<g style="fill:#000000; fill-opacity:0.0; 
stroke:#000000; stroke-width:39.3701; stroke-opacity:1; 
stroke-linecap:round; stroke-linejoin:round;">
</g>
<g style="fill:#000000; fill-opacity:0.0; 
stroke:#000000; stroke-width:59.0551; stroke-opacity:1; 
stroke-linecap:round; stroke-linejoin:round;">
<path d="M112635 33428
L112708 33452
L112733 33476
L112757 33525
L112757 33598
L112733 33647
L112708 33671
L112660 33696
L112465 33696
L112465 33184
L112635 33184
L112684 33208
L112708 33233
L112733 33281
L112733 33330
L112708 33379
L112684 33403
L112635 33428
L112465 33428
" />
</g>
<g style="fill:#000000; fill-opacity:0.0; 
stroke:#000000; stroke-width:39.3701; stroke-opacity:1; 
stroke-linecap:round; stroke-linejoin:round;">
</g>
<g style="fill:#000000; fill-opacity:0.0; 
stroke:#000000; stroke-width:59.0551; stroke-opacity:1; 
stroke-linecap:round; stroke-linejoin:round;">
<path d="M112757 53332
L112733 53356
L112660 53381
L112611 53381
L112538 53356
L112489 53308
L112465 53259
L112440 53161
L112440 53088
L112465 52991
L112489 52942
L112538 52893
L112611 52869
L112660 52869
L112733 52893
L112757 52918
" />
</g>
<g style="fill:#000000; fill-opacity:0.0; 
stroke:#000000; stroke-width:39.3701; stroke-opacity:1; 
stroke-linecap:round; stroke-linejoin:round;">
</g>
<g style="fill:#000000; fill-opacity:0.0; 
stroke:#000000; stroke-width:59.0551; stroke-opacity:1; 
stroke-linecap:round; stroke-linejoin:round;">
<path d="M112465 73066
L112465 72554
L112587 72554
L112660 72578
L112708 72627
L112733 72676
L112757 72773
L112757 72846
L112733 72944
L112708 72993
L112660 73041
L112587 73066
L112465 73066
" />
</g>
<g style="fill:#000000; fill-opacity:0.0; 
stroke:#000000; stroke-width:39.3701; stroke-opacity:1; 
stroke-linecap:round; stroke-linejoin:round;">
</g>
<g style="fill:#000000; fill-opacity:0.0; 
stroke:#000000; stroke-width:59.0551; stroke-opacity:1; 
stroke-linecap:round; stroke-linejoin:round;">
<path d="M78881 76293
L78881 75703
L79022 75703
L79106 75731
L79162 75787
L79190 75843
L79219 75956
L79219 76040
L79190 76153
L79162 76209
L79106 76265
L79022 76293
L78881 76293
" />
<path d="M79725 76293
L79725 75984
L79697 75928
L79640 75899
L79528 75899
L79472 75928
" />
<path d="M79725 76265
L79669 76293
L79528 76293
L79472 76265
L79444 76209
L79444 76153
L79472 76096
L79528 76068
L79669 76068
L79725 76040
" />
<path d="M79922 75899
L80147 75899
" />
<path d="M80006 75703
L80006 76209
L80034 76265
L80090 76293
L80147 76293
" />
<path d="M80568 76265
L80512 76293
L80400 76293
L80343 76265
L80315 76209
L80315 75984
L80343 75928
L80400 75899
L80512 75899
L80568 75928
L80597 75984
L80597 76040
L80315 76096
" />
<path d="M80850 76237
L80878 76265
L80850 76293
L80822 76265
L80850 76237
L80850 76293
" />
<path d="M80850 75928
L80878 75956
L80850 75984
L80822 75956
L80850 75928
L80850 75984
" />
</g>
<g style="fill:#000000; fill-opacity:0.0; 
stroke:#000000; stroke-width:39.3701; stroke-opacity:1; 
stroke-linecap:round; stroke-linejoin:round;">
</g>
<g style="fill:#000000; fill-opacity:0.0; 
stroke:#000000; stroke-width:59.0551; stroke-opacity:1; 
stroke-linecap:round; stroke-linejoin:round;">
<path d="M69685 76577
L112205 76577
" />
</g>
<g style="fill:#000000; fill-opacity:0.0; 
stroke:#000000; stroke-width:39.3701; stroke-opacity:1; 
stroke-linecap:round; stroke-linejoin:round;">
</g>
<g style="fill:#000000; fill-opacity:0.0; 
stroke:#000000; stroke-width:59.0551; stroke-opacity:1; 
stroke-linecap:round; stroke-linejoin:round;">
<path d="M70220 77395
L70220 76805
" />
<path d="M70557 77395
L70304 77058
" />
<path d="M70557 76805
L70220 77142
" />
<path d="M70810 77395
L70810 77002
" />
<path d="M70810 76805
L70782 76833
L70810 76861
L70838 76833
L70810 76805
L70810 76861
" />
<path d="M71429 77339
L71401 77367
L71316 77395
L71260 77395
L71176 77367
L71120 77311
L71091 77255
L71063 77142
L71063 77058
L71091 76946
L71120 76889
L71176 76833
L71260 76805
L71316 76805
L71401 76833
L71429 76861
" />
<path d="M71935 77395
L71935 77086
L71907 77030
L71851 77002
L71738 77002
L71682 77030
" />
<path d="M71935 77367
L71879 77395
L71738 77395
L71682 77367
L71654 77311
L71654 77255
L71682 77199
L71738 77171
L71879 77171
L71935 77142
" />
<path d="M72469 77395
L72469 76805
" />
<path d="M72469 77367
L72413 77395
L72301 77395
L72244 77367
L72216 77339
L72188 77283
L72188 77114
L72216 77058
L72244 77030
L72301 77002
L72413 77002
L72469 77030
" />
<path d="M73201 77086
L73397 77086
" />
<path d="M73482 77395
L73201 77395
L73201 76805
L73482 76805
" />
<path d="M73735 77339
L73763 77367
L73735 77395
L73707 77367
L73735 77339
L73735 77395
" />
<path d="M74016 77395
L74016 76805
L74157 76805
L74241 76833
L74297 76889
L74325 76946
L74354 77058
L74354 77142
L74325 77255
L74297 77311
L74241 77367
L74157 77395
L74016 77395
" />
<path d="M74607 77339
L74635 77367
L74607 77395
L74579 77367
L74607 77339
L74607 77395
" />
<path d="M74860 77227
L75141 77227
" />
<path d="M74804 77395
L75000 76805
L75197 77395
" />
<path d="M75394 77339
L75422 77367
L75394 77395
L75366 77367
L75394 77339
L75394 77395
" />
<path d="M76575 77002
L76575 77592
" />
<path d="M76575 77030
L76631 77002
L76744 77002
L76800 77030
L76828 77058
L76856 77114
L76856 77283
L76828 77339
L76800 77367
L76744 77395
L76631 77395
L76575 77367
" />
<path d="M77363 77367
L77306 77395
L77194 77395
L77138 77367
L77109 77339
L77081 77283
L77081 77114
L77109 77058
L77138 77030
L77194 77002
L77306 77002
L77363 77030
" />
<path d="M77616 77395
L77616 76805
" />
<path d="M77616 77030
L77672 77002
L77784 77002
L77841 77030
L77869 77058
L77897 77114
L77897 77283
L77869 77339
L77841 77367
L77784 77395
L77672 77395
L77616 77367
" />
<path d="M78150 77002
L78150 77395
" />
<path d="M78150 77058
L78178 77030
L78234 77002
L78319 77002
L78375 77030
L78403 77086
L78403 77395
" />
<path d="M78909 77367
L78853 77395
L78741 77395
L78684 77367
L78656 77311
L78656 77086
L78684 77030
L78741 77002
L78853 77002
L78909 77030
L78937 77086
L78937 77142
L78656 77199
" />
<path d="M79134 77002
L79247 77395
L79359 77114
L79472 77395
L79584 77002
" />
<path d="M80428 77620
L80400 77592
L80343 77508
L80315 77452
L80287 77367
L80259 77227
L80259 77114
L80287 76974
L80315 76889
L80343 76833
L80400 76749
L80428 76721
" />
<path d="M80625 76861
L80653 76833
L80709 76805
L80850 76805
L80906 76833
L80934 76861
L80962 76917
L80962 76974
L80934 77058
L80597 77395
L80962 77395
" />
<path d="M81328 76805
L81384 76805
L81440 76833
L81468 76861
L81496 76917
L81525 77030
L81525 77171
L81496 77283
L81468 77339
L81440 77367
L81384 77395
L81328 77395
L81271 77367
L81243 77339
L81215 77283
L81187 77171
L81187 77030
L81215 76917
L81243 76861
L81271 76833
L81328 76805
" />
<path d="M82087 77395
L81750 77395
" />
<path d="M81918 77395
L81918 76805
L81862 76889
L81806 76946
L81750 76974
" />
<path d="M82593 77002
L82593 77395
" />
<path d="M82453 76777
L82312 77199
L82678 77199
" />
<path d="M82903 77171
L83352 77171
" />
<path d="M83746 76805
L83802 76805
L83859 76833
L83887 76861
L83915 76917
L83943 77030
L83943 77171
L83915 77283
L83887 77339
L83859 77367
L83802 77395
L83746 77395
L83690 77367
L83662 77339
L83634 77283
L83606 77171
L83606 77030
L83634 76917
L83662 76861
L83690 76833
L83746 76805
" />
<path d="M84140 76805
L84505 76805
L84309 77030
L84393 77030
L84449 77058
L84477 77086
L84505 77142
L84505 77283
L84477 77339
L84449 77367
L84393 77395
L84224 77395
L84168 77367
L84140 77339
" />
<path d="M84759 77171
L85208 77171
" />
<path d="M85602 76805
L85658 76805
L85715 76833
L85743 76861
L85771 76917
L85799 77030
L85799 77171
L85771 77283
L85743 77339
L85715 77367
L85658 77395
L85602 77395
L85546 77367
L85518 77339
L85490 77283
L85462 77171
L85462 77030
L85490 76917
L85518 76861
L85546 76833
L85602 76805
" />
<path d="M86080 77395
L86193 77395
L86249 77367
L86277 77339
L86333 77255
L86361 77142
L86361 76917
L86333 76861
L86305 76833
L86249 76805
L86136 76805
L86080 76833
L86052 76861
L86024 76917
L86024 77058
L86052 77114
L86080 77142
L86136 77171
L86249 77171
L86305 77142
L86333 77114
L86361 77058
" />
<path d="M87261 77086
L87346 77114
L87374 77142
L87402 77199
L87402 77283
L87374 77339
L87346 77367
L87289 77395
L87064 77395
L87064 76805
L87261 76805
L87318 76833
L87346 76861
L87374 76917
L87374 76974
L87346 77030
L87318 77058
L87261 77086
L87064 77086
" />
<path d="M87599 76805
L87992 76805
L87599 77395
L87992 77395
" />
<path d="M88555 77395
L88358 77114
" />
<path d="M88217 77395
L88217 76805
L88442 76805
L88499 76833
L88527 76861
L88555 76917
L88555 77002
L88527 77058
L88499 77086
L88442 77114
L88217 77114
" />
<path d="M89511 77002
L89511 77395
" />
<path d="M89370 76777
L89230 77199
L89595 77199
" />
<path d="M89764 76805
L90158 76805
L89905 77395
" />
<path d="M90636 77002
L90636 77395
" />
<path d="M90495 76777
L90355 77199
L90720 77199
" />
<path d="M91058 76805
L91114 76805
L91170 76833
L91198 76861
L91226 76917
L91255 77030
L91255 77171
L91226 77283
L91198 77339
L91170 77367
L91114 77395
L91058 77395
L91001 77367
L90973 77339
L90945 77283
L90917 77171
L90917 77030
L90945 76917
L90973 76861
L91001 76833
L91058 76805
" />
<path d="M91451 77620
L91480 77592
L91536 77508
L91564 77452
L91592 77367
L91620 77227
L91620 77114
L91592 76974
L91564 76889
L91536 76833
L91480 76749
L91451 76721
" />
<path d="M91901 77171
L92351 77171
" />
<path d="M92633 77002
L92633 77592
" />
<path d="M92633 77030
L92689 77002
L92801 77002
L92858 77030
L92886 77058
L92914 77114
L92914 77283
L92886 77339
L92858 77367
L92801 77395
L92689 77395
L92633 77367
" />
<path d="M93167 77395
L93167 77002
" />
<path d="M93167 77114
L93195 77058
L93223 77030
L93279 77002
L93336 77002
" />
<path d="M93617 77395
L93561 77367
L93532 77339
L93504 77283
L93504 77114
L93532 77058
L93561 77030
L93617 77002
L93701 77002
L93757 77030
L93786 77058
L93814 77114
L93814 77283
L93786 77339
L93757 77367
L93701 77395
L93617 77395
" />
<path d="M94320 77395
L94320 76805
" />
<path d="M94320 77367
L94264 77395
L94151 77395
L94095 77367
L94067 77339
L94039 77283
L94039 77114
L94067 77058
L94095 77030
L94151 77002
L94264 77002
L94320 77030
" />
<path d="M94854 77002
L94854 77395
" />
<path d="M94601 77002
L94601 77311
L94629 77367
L94685 77395
L94770 77395
L94826 77367
L94854 77339
" />
<path d="M95388 77367
L95332 77395
L95220 77395
L95163 77367
L95135 77339
L95107 77283
L95107 77114
L95135 77058
L95163 77030
L95220 77002
L95332 77002
L95388 77030
" />
<path d="M95557 77002
L95782 77002
" />
<path d="M95642 76805
L95642 77311
L95670 77367
L95726 77395
L95782 77395
" />
</g>
<g style="fill:#000000; fill-opacity:0.0; 
stroke:#000000; stroke-width:39.3701; stroke-opacity:1; 
stroke-linecap:round; stroke-linejoin:round;">
</g>
<g style="fill:#000000; fill-opacity:0.0; 
stroke:#000000; stroke-width:59.0551; stroke-opacity:1; 
stroke-linecap:round; stroke-linejoin:round;">
<path d="M69685 75396
L112205 75396
" />
</g>
<g style="fill:#000000; fill-opacity:0.0; 
stroke:#000000; stroke-width:39.3701; stroke-opacity:1; 
stroke-linecap:round; stroke-linejoin:round;">
</g>
<g style="fill:#000000; fill-opacity:0.0; 
stroke:#000000; stroke-width:118.11; stroke-opacity:1; 
stroke-linecap:round; stroke-linejoin:round;">
<path d="M104022 76293
L103825 76012
" />
<path d="M103684 76293
L103684 75703
L103909 75703
L103965 75731
L103994 75759
L104022 75815
L104022 75899
L103994 75956
L103965 75984
L103909 76012
L103684 76012
" />
<path d="M104500 76265
L104444 76293
L104331 76293
L104275 76265
L104247 76209
L104247 75984
L104275 75928
L104331 75899
L104444 75899
L104500 75928
L104528 75984
L104528 76040
L104247 76096
" />
<path d="M104725 75899
L104865 76293
L105006 75899
" />
<path d="M105231 76237
L105259 76265
L105231 76293
L105203 76265
L105231 76237
L105231 76293
" />
<path d="M105231 75928
L105259 75956
L105231 75984
L105203 75956
L105231 75928
L105231 75984
" />
</g>
<g style="fill:#000000; fill-opacity:0.0; 
stroke:#000000; stroke-width:39.3701; stroke-opacity:1; 
stroke-linecap:round; stroke-linejoin:round;">
</g>
<g style="fill:#000000; fill-opacity:0.0; 
stroke:#000000; stroke-width:59.0551; stroke-opacity:1; 
stroke-linecap:round; stroke-linejoin:round;">
<path d="M70192 76265
L70276 76293
L70417 76293
L70473 76265
L70501 76237
L70529 76181
L70529 76124
L70501 76068
L70473 76040
L70417 76012
L70304 75984
L70248 75956
L70220 75928
L70192 75871
L70192 75815
L70220 75759
L70248 75731
L70304 75703
L70445 75703
L70529 75731
" />
<path d="M70782 76293
L70782 75899
" />
<path d="M70782 75703
L70754 75731
L70782 75759
L70810 75731
L70782 75703
L70782 75759
" />
<path d="M71007 75899
L71316 75899
L71007 76293
L71316 76293
" />
<path d="M71766 76265
L71710 76293
L71598 76293
L71541 76265
L71513 76209
L71513 75984
L71541 75928
L71598 75899
L71710 75899
L71766 75928
L71795 75984
L71795 76040
L71513 76096
" />
<path d="M72048 76237
L72076 76265
L72048 76293
L72019 76265
L72048 76237
L72048 76293
" />
<path d="M72048 75928
L72076 75956
L72048 75984
L72019 75956
L72048 75928
L72048 75984
" />
<path d="M72751 76124
L73032 76124
" />
<path d="M72694 76293
L72891 75703
L73088 76293
" />
<path d="M73538 75899
L73538 76293
" />
<path d="M73397 75674
L73257 76096
L73622 76096
" />
</g>
<g style="fill:#000000; fill-opacity:0.0; 
stroke:#000000; stroke-width:39.3701; stroke-opacity:1; 
stroke-linecap:round; stroke-linejoin:round;">
</g>
<g style="fill:#000000; fill-opacity:0.0; 
stroke:#000000; stroke-width:59.0551; stroke-opacity:1; 
stroke-linecap:round; stroke-linejoin:round;">
<path d="M103684 77395
L103684 76805
" />
<path d="M104219 77395
L104219 76805
" />
<path d="M104219 77367
L104162 77395
L104050 77395
L103994 77367
L103965 77339
L103937 77283
L103937 77114
L103965 77058
L103994 77030
L104050 77002
L104162 77002
L104219 77030
" />
<path d="M104500 77339
L104528 77367
L104500 77395
L104472 77367
L104500 77339
L104500 77395
" />
<path d="M104500 77030
L104528 77058
L104500 77086
L104472 77058
L104500 77030
L104500 77086
" />
<path d="M105540 77395
L105203 77395
" />
<path d="M105372 77395
L105372 76805
L105315 76889
L105259 76946
L105203 76974
" />
<path d="M106215 76777
L105709 77536
" />
<path d="M106721 77395
L106384 77395
" />
<path d="M106553 77395
L106553 76805
L106496 76889
L106440 76946
L106384 76974
" />
</g>
<g style="fill:#000000; fill-opacity:0.0; 
stroke:#000000; stroke-width:39.3701; stroke-opacity:1; 
stroke-linecap:round; stroke-linejoin:round;">
</g>
<g style="fill:#000000; fill-opacity:0.0; 
stroke:#000000; stroke-width:59.0551; stroke-opacity:1; 
stroke-linecap:round; stroke-linejoin:round;">
<path d="M69685 73821
L112205 73821
" />
</g>
<g style="fill:#000000; fill-opacity:0.0; 
stroke:#000000; stroke-width:39.3701; stroke-opacity:1; 
stroke-linecap:round; stroke-linejoin:round;">
</g>
<g style="fill:#000000; fill-opacity:0.0; 
stroke:#000000; stroke-width:157.48; stroke-opacity:1; 
stroke-linecap:round; stroke-linejoin:round;">
<path d="M70257 74099
L70707 74099
" />
<path d="M70384 74886
L70482 74099
" />
<path d="M70871 74886
L70937 74361
" />
<path d="M70970 74099
L70927 74136
L70960 74174
L71002 74136
L70970 74099
L70960 74174
" />
<path d="M71199 74361
L71499 74361
" />
<path d="M71345 74099
L71260 74774
L71288 74849
L71359 74886
L71434 74886
" />
<path d="M71809 74886
L71738 74849
L71710 74774
L71795 74099
" />
<path d="M72413 74849
L72334 74886
L72184 74886
L72113 74849
L72085 74774
L72123 74474
L72169 74399
L72249 74361
L72399 74361
L72469 74399
L72498 74474
L72488 74549
L72104 74624
" />
<path d="M72793 74811
L72826 74849
L72783 74886
L72751 74849
L72793 74811
L72783 74886
" />
<path d="M72844 74399
L72877 74436
L72835 74474
L72802 74436
L72844 74399
L72835 74474
" />
</g>
<g style="fill:#000000; fill-opacity:0.0; 
stroke:#000000; stroke-width:39.3701; stroke-opacity:1; 
stroke-linecap:round; stroke-linejoin:round;">
</g>
<g style="fill:#000000; fill-opacity:0.0; 
stroke:#000000; stroke-width:59.0551; stroke-opacity:1; 
stroke-linecap:round; stroke-linejoin:round;">
<path d="M70417 73070
L70220 73070
" />
<path d="M70220 73380
L70220 72789
L70501 72789
" />
<path d="M70726 73380
L70726 72986
" />
<path d="M70726 72789
L70698 72817
L70726 72845
L70754 72817
L70726 72789
L70726 72845
" />
<path d="M71091 73380
L71035 73352
L71007 73295
L71007 72789
" />
<path d="M71541 73352
L71485 73380
L71373 73380
L71316 73352
L71288 73295
L71288 73070
L71316 73014
L71373 72986
L71485 72986
L71541 73014
L71570 73070
L71570 73127
L71288 73183
" />
<path d="M71823 73323
L71851 73352
L71823 73380
L71795 73352
L71823 73323
L71823 73380
" />
<path d="M71823 73014
L71851 73042
L71823 73070
L71795 73042
L71823 73014
L71823 73070
" />
<path d="M72526 73211
L72807 73211
" />
<path d="M72469 73380
L72666 72789
L72863 73380
" />
<path d="M73060 73380
L73060 72986
" />
<path d="M73060 73042
L73088 73014
L73144 72986
L73229 72986
L73285 73014
L73313 73070
L73313 73380
" />
<path d="M73313 73070
L73341 73014
L73397 72986
L73482 72986
L73538 73014
L73566 73070
L73566 73380
" />
<path d="M73847 72986
L73847 73577
" />
<path d="M73847 73014
L73904 72986
L74016 72986
L74072 73014
L74100 73042
L74129 73099
L74129 73267
L74100 73323
L74072 73352
L74016 73380
L73904 73380
L73847 73352
" />
<path d="M74466 73380
L74410 73352
L74382 73295
L74382 72789
" />
<path d="M74691 73380
L74691 72986
" />
<path d="M74691 72789
L74663 72817
L74691 72845
L74719 72817
L74691 72789
L74691 72845
" />
<path d="M74832 73436
L75282 73436
" />
<path d="M75732 73380
L75394 73380
" />
<path d="M75563 73380
L75563 72789
L75507 72874
L75450 72930
L75394 72958
" />
<path d="M76097 72789
L76153 72789
L76210 72817
L76238 72845
L76266 72902
L76294 73014
L76294 73155
L76266 73267
L76238 73323
L76210 73352
L76153 73380
L76097 73380
L76041 73352
L76013 73323
L75985 73267
L75956 73155
L75956 73014
L75985 72902
L76013 72845
L76041 72817
L76097 72789
" />
<path d="M76491 72789
L76631 73380
L76744 72958
L76856 73380
L76997 72789
" />
<path d="M77081 73436
L77531 73436
" />
<path d="M77588 72789
L77925 72789
" />
<path d="M77756 73380
L77756 72789
" />
<path d="M78066 73380
L78375 72986
" />
<path d="M78066 72986
L78375 73380
" />
<path d="M78853 72986
L78853 73380
" />
<path d="M78600 72986
L78600 73295
L78628 73352
L78684 73380
L78769 73380
L78825 73352
L78853 73323
" />
<path d="M79050 72986
L79275 72986
" />
<path d="M79134 72789
L79134 73295
L79162 73352
L79219 73380
L79275 73380
" />
<path d="M79415 73380
L79725 72986
" />
<path d="M79415 72986
L79725 73380
" />
<path d="M79950 73380
L79950 72986
" />
<path d="M79950 72789
L79922 72817
L79950 72845
L79978 72817
L79950 72789
L79950 72845
" />
<path d="M80090 73436
L80540 73436
" />
<path d="M80625 72986
L80765 73380
L80906 72986
" />
<path d="M81356 73352
L81300 73380
L81187 73380
L81131 73352
L81103 73295
L81103 73070
L81131 73014
L81187 72986
L81300 72986
L81356 73014
L81384 73070
L81384 73127
L81103 73183
" />
<path d="M81637 73380
L81637 72986
" />
<path d="M81637 73099
L81665 73042
L81693 73014
L81750 72986
L81806 72986
" />
<path d="M81974 73352
L82031 73380
L82143 73380
L82199 73352
L82228 73295
L82228 73267
L82199 73211
L82143 73183
L82059 73183
L82003 73155
L81974 73099
L81974 73070
L82003 73014
L82059 72986
L82143 72986
L82199 73014
" />
<path d="M82481 73380
L82481 72986
" />
<path d="M82481 72789
L82453 72817
L82481 72845
L82509 72817
L82481 72789
L82481 72845
" />
<path d="M82846 73380
L82790 73352
L82762 73323
L82734 73267
L82734 73099
L82762 73042
L82790 73014
L82846 72986
L82931 72986
L82987 73014
L83015 73042
L83043 73099
L83043 73267
L83015 73323
L82987 73352
L82931 73380
L82846 73380
" />
<path d="M83296 72986
L83296 73380
" />
<path d="M83296 73042
L83324 73014
L83381 72986
L83465 72986
L83521 73014
L83549 73070
L83549 73380
" />
<path d="M83831 73323
L83859 73352
L83831 73380
L83802 73352
L83831 73323
L83831 73380
" />
<path d="M84112 73380
L84112 72789
" />
<path d="M84168 73155
L84337 73380
" />
<path d="M84337 72986
L84112 73211
" />
<path d="M84590 73380
L84590 72986
" />
<path d="M84590 72789
L84562 72817
L84590 72845
L84618 72817
L84590 72789
L84590 72845
" />
<path d="M85124 73352
L85068 73380
L84955 73380
L84899 73352
L84871 73323
L84843 73267
L84843 73099
L84871 73042
L84899 73014
L84955 72986
L85068 72986
L85124 73014
" />
<path d="M85630 73380
L85630 73070
L85602 73014
L85546 72986
L85433 72986
L85377 73014
" />
<path d="M85630 73352
L85574 73380
L85433 73380
L85377 73352
L85349 73295
L85349 73239
L85377 73183
L85433 73155
L85574 73155
L85630 73127
" />
<path d="M86165 73380
L86165 72789
" />
<path d="M86165 73352
L86108 73380
L85996 73380
L85940 73352
L85912 73323
L85883 73267
L85883 73099
L85912 73042
L85940 73014
L85996 72986
L86108 72986
L86165 73014
" />
<path d="M86305 73436
L86755 73436
" />
<path d="M86896 72986
L86896 73577
" />
<path d="M86896 73014
L86952 72986
L87064 72986
L87121 73014
L87149 73042
L87177 73099
L87177 73267
L87149 73323
L87121 73352
L87064 73380
L86952 73380
L86896 73352
" />
<path d="M87683 73352
L87627 73380
L87514 73380
L87458 73352
L87430 73323
L87402 73267
L87402 73099
L87430 73042
L87458 73014
L87514 72986
L87627 72986
L87683 73014
" />
<path d="M87936 73380
L87936 72789
" />
<path d="M87936 73014
L87992 72986
L88105 72986
L88161 73014
L88189 73042
L88217 73099
L88217 73267
L88189 73323
L88161 73352
L88105 73380
L87992 73380
L87936 73352
" />
</g>
<g style="fill:#000000; fill-opacity:0.0; 
stroke:#000000; stroke-width:39.3701; stroke-opacity:1; 
stroke-linecap:round; stroke-linejoin:round;">
</g>
<g style="fill:#000000; fill-opacity:0.0; 
stroke:#000000; stroke-width:59.0551; stroke-opacity:1; 
stroke-linecap:round; stroke-linejoin:round;">
<path d="M69685 71459
L112205 71459
" />
</g>
<g style="fill:#000000; fill-opacity:0.0; 
stroke:#000000; stroke-width:39.3701; stroke-opacity:1; 
stroke-linecap:round; stroke-linejoin:round;">
</g>
<g style="fill:#000000; fill-opacity:0.0; 
stroke:#000000; stroke-width:59.0551; stroke-opacity:1; 
stroke-linecap:round; stroke-linejoin:round;">
<path d="M70192 72289
L70276 72317
L70417 72317
L70473 72289
L70501 72260
L70529 72204
L70529 72148
L70501 72092
L70473 72064
L70417 72036
L70304 72007
L70248 71979
L70220 71951
L70192 71895
L70192 71839
L70220 71782
L70248 71754
L70304 71726
L70445 71726
L70529 71754
" />
<path d="M70782 72317
L70782 71726
" />
<path d="M71035 72317
L71035 72007
L71007 71951
L70951 71923
L70867 71923
L70810 71951
L70782 71979
" />
<path d="M71541 72289
L71485 72317
L71373 72317
L71316 72289
L71288 72232
L71288 72007
L71316 71951
L71373 71923
L71485 71923
L71541 71951
L71570 72007
L71570 72064
L71288 72120
" />
<path d="M72048 72289
L71991 72317
L71879 72317
L71823 72289
L71795 72232
L71795 72007
L71823 71951
L71879 71923
L71991 71923
L72048 71951
L72076 72007
L72076 72064
L71795 72120
" />
<path d="M72244 71923
L72469 71923
" />
<path d="M72329 71726
L72329 72232
L72357 72289
L72413 72317
L72469 72317
" />
<path d="M72666 72260
L72694 72289
L72666 72317
L72638 72289
L72666 72260
L72666 72317
" />
<path d="M72666 71951
L72694 71979
L72666 72007
L72638 71979
L72666 71951
L72666 72007
" />
</g>
<g style="fill:#000000; fill-opacity:0.0; 
stroke:#000000; stroke-width:39.3701; stroke-opacity:1; 
stroke-linecap:round; stroke-linejoin:round;">
</g>
<g style="fill:#000000; fill-opacity:0.0; 
stroke:#000000; stroke-width:59.0551; stroke-opacity:1; 
stroke-linecap:round; stroke-linejoin:round;">
<path d="M77559 75396
L77559 76577
" />
</g>
<g style="fill:#000000; fill-opacity:0.0; 
stroke:#000000; stroke-width:39.3701; stroke-opacity:1; 
stroke-linecap:round; stroke-linejoin:round;">
</g>
<g style="fill:#000000; fill-opacity:0.0; 
stroke:#000000; stroke-width:59.0551; stroke-opacity:1; 
stroke-linecap:round; stroke-linejoin:round;">
<path d="M102756 75396
L102756 77955
" />
<path d="M53800 50700
L53800 38200
" />
<path d="M67700 50700
L67700 38200
" />
<path d="M67700 38200
L53800 38200
" />
<path d="M53800 50700
L53800 50700
" />
<path d="M67700 50700
L53800 50700
" />
</g>
<g style="fill:#000000; fill-opacity:0.0; 
stroke:#000000; stroke-width:120; stroke-opacity:1; 
stroke-linecap:round; stroke-linejoin:round;">
<path d="M55400 46514
L55371 46542
L55285 46571
L55228 46571
L55142 46542
L55085 46485
L55057 46428
L55028 46314
L55028 46228
L55057 46114
L55085 46057
L55142 46000
L55228 45971
L55285 45971
L55371 46000
L55400 46028
" />
<path d="M55971 46571
L55628 46571
" />
<path d="M55800 46571
L55800 45971
L55742 46057
L55685 46114
L55628 46142
" />
<path d="M54857 43571
L54514 43571
" />
<path d="M54685 43571
L54685 42971
L54628 43057
L54571 43114
L54514 43142
" />
<path d="M55228 42971
L55285 42971
L55342 43000
L55371 43028
L55400 43085
L55428 43200
L55428 43342
L55400 43457
L55371 43514
L55342 43542
L55285 43571
L55228 43571
L55171 43542
L55142 43514
L55114 43457
L55085 43342
L55085 43200
L55114 43085
L55142 43028
L55171 43000
L55228 42971
" />
<path d="M55942 43171
L55942 43571
" />
<path d="M55685 43171
L55685 43485
L55714 43542
L55771 43571
L55857 43571
L55914 43542
L55942 43514
" />
<path d="M56428 43257
L56228 43257
" />
<path d="M56228 43571
L56228 42971
L56514 42971
" />
<path d="M55300 39214
L55271 39242
L55185 39271
L55128 39271
L55042 39242
L54985 39185
L54957 39128
L54928 39014
L54928 38928
L54957 38814
L54985 38757
L55042 38700
L55128 38671
L55185 38671
L55271 38700
L55300 38728
" />
<path d="M55528 38728
L55557 38700
L55614 38671
L55757 38671
L55814 38700
L55842 38728
L55871 38785
L55871 38842
L55842 38928
L55500 39271
L55871 39271
" />
<path d="M54414 42871
L54414 43271
" />
<path d="M54271 42642
L54128 43071
L54499 43071
" />
<path d="M54671 42671
L55071 42671
L54814 43271
" />
<path d="M55414 42671
L55471 42671
L55528 42700
L55557 42728
L55585 42785
L55614 42900
L55614 43042
L55585 43157
L55557 43214
L55528 43242
L55471 43271
L55414 43271
L55357 43242
L55328 43214
L55300 43157
L55271 43042
L55271 42900
L55300 42785
L55328 42728
L55357 42700
L55414 42671
" />
<path d="M56128 42871
L56128 43271
" />
<path d="M55871 42871
L55871 43185
L55900 43242
L55957 43271
L56042 43271
L56100 43242
L56128 43214
" />
<path d="M56614 42957
L56414 42957
" />
<path d="M56414 43271
L56414 42671
L56700 42671
" />
<path d="M68214 42900
L68242 42928
L68271 43014
L68271 43071
L68242 43157
L68185 43214
L68128 43242
L68014 43271
L67928 43271
L67814 43242
L67757 43214
L67700 43157
L67671 43071
L67671 43014
L67700 42928
L67728 42900
" />
<path d="M67671 42700
L67671 42328
L67900 42528
L67900 42442
L67928 42385
L67957 42357
L68014 42328
L68157 42328
L68214 42357
L68242 42385
L68271 42442
L68271 42614
L68242 42671
L68214 42700
" />
<path d="M61271 44514
L61271 44857
" />
<path d="M61271 44685
L60671 44685
L60757 44742
L60814 44800
L60842 44857
" />
<path d="M60671 44142
L60671 44085
L60700 44028
L60728 44000
L60785 43971
L60900 43942
L61042 43942
L61157 43971
L61214 44000
L61242 44028
L61271 44085
L61271 44142
L61242 44200
L61214 44228
L61157 44257
L61042 44285
L60900 44285
L60785 44257
L60728 44228
L60700 44200
L60671 44142
" />
<path d="M60671 43571
L60671 43514
L60700 43457
L60728 43428
L60785 43400
L60900 43371
L61042 43371
L61157 43400
L61214 43428
L61242 43457
L61271 43514
L61271 43571
L61242 43628
L61214 43657
L61157 43685
L61042 43714
L60900 43714
L60785 43685
L60728 43657
L60700 43628
L60671 43571
" />
<path d="M60671 42999
L60671 42942
L60700 42885
L60728 42857
L60785 42828
L60900 42799
L61042 42799
L61157 42828
L61214 42857
L61242 42885
L61271 42942
L61271 42999
L61242 43057
L61214 43085
L61157 43114
L61042 43142
L60900 43142
L60785 43114
L60728 43085
L60700 43057
L60671 42999
" />
<path d="M60871 42285
L61271 42285
" />
<path d="M60871 42542
L61185 42542
L61242 42514
L61271 42457
L61271 42371
L61242 42314
L61214 42285
" />
<path d="M60957 41799
L60957 41999
" />
<path d="M61271 41999
L60671 41999
L60671 41714
" />
<path d="M54342 46414
L54314 46442
L54228 46471
L54171 46471
L54085 46442
L54028 46385
L54000 46328
L53971 46214
L53971 46128
L54000 46014
L54028 45957
L54085 45900
L54171 45871
L54228 45871
L54314 45900
L54342 45928
" />
<path d="M54714 45871
L54828 45871
L54885 45900
L54942 45957
L54971 46071
L54971 46271
L54942 46385
L54885 46442
L54828 46471
L54714 46471
L54657 46442
L54600 46385
L54571 46271
L54571 46071
L54600 45957
L54657 45900
L54714 45871
" />
<path d="M55228 46471
L55228 45871
L55571 46471
L55571 45871
" />
<path d="M55857 46471
L55857 45871
L56199 46471
L56199 45871
" />
<path d="M56342 46528
L56799 46528
" />
<path d="M57057 45871
L57114 45871
L57171 45900
L57199 45928
L57228 45985
L57257 46100
L57257 46242
L57228 46357
L57199 46414
L57171 46442
L57114 46471
L57057 46471
L56999 46442
L56971 46414
L56942 46357
L56914 46242
L56914 46100
L56942 45985
L56971 45928
L56999 45900
L57057 45871
" />
<path d="M57828 46471
L57485 46471
" />
<path d="M57657 46471
L57657 45871
L57599 45957
L57542 46014
L57485 46042
" />
<path d="M54157 50300
L54442 50300
" />
<path d="M54100 50471
L54300 49871
L54500 50471
" />
<path d="M54957 50071
L54957 50471
" />
<path d="M54700 50071
L54700 50385
L54728 50442
L54785 50471
L54871 50471
L54928 50442
L54957 50414
" />
<path d="M55500 50471
L55500 49871
" />
<path d="M55500 50442
L55442 50471
L55328 50471
L55271 50442
L55242 50414
L55214 50357
L55214 50185
L55242 50128
L55271 50100
L55328 50071
L55442 50071
L55500 50100
" />
<path d="M55785 50471
L55785 50071
" />
<path d="M55785 49871
L55757 49900
L55785 49928
L55814 49900
L55785 49871
L55785 49928
" />
<path d="M56157 50471
L56100 50442
L56071 50414
L56042 50357
L56042 50185
L56071 50128
L56100 50100
L56157 50071
L56242 50071
L56300 50100
L56328 50128
L56357 50185
L56357 50357
L56328 50414
L56300 50442
L56242 50471
L56157 50471
" />
<path d="M56471 50528
L56928 50528
" />
<path d="M57071 50471
L57071 49871
" />
<path d="M57357 50071
L57357 50471
" />
<path d="M57357 50128
L57385 50100
L57442 50071
L57528 50071
L57585 50100
L57614 50157
L57614 50471
" />
<path d="M58442 46414
L58414 46442
L58328 46471
L58271 46471
L58185 46442
L58128 46385
L58100 46328
L58071 46214
L58071 46128
L58100 46014
L58128 45957
L58185 45900
L58271 45871
L58328 45871
L58414 45900
L58442 45928
" />
<path d="M58814 45871
L58928 45871
L58985 45900
L59042 45957
L59071 46071
L59071 46271
L59042 46385
L58985 46442
L58928 46471
L58814 46471
L58757 46442
L58700 46385
L58671 46271
L58671 46071
L58700 45957
L58757 45900
L58814 45871
" />
<path d="M59328 46471
L59328 45871
L59671 46471
L59671 45871
" />
<path d="M59957 46471
L59957 45871
L60299 46471
L60299 45871
" />
<path d="M60442 46528
L60899 46528
" />
<path d="M61157 45871
L61214 45871
L61271 45900
L61299 45928
L61328 45985
L61357 46100
L61357 46242
L61328 46357
L61299 46414
L61271 46442
L61214 46471
L61157 46471
L61099 46442
L61071 46414
L61042 46357
L61014 46242
L61014 46100
L61042 45985
L61071 45928
L61099 45900
L61157 45871
" />
<path d="M61585 45928
L61614 45900
L61671 45871
L61814 45871
L61871 45900
L61899 45928
L61928 45985
L61928 46042
L61899 46128
L61557 46471
L61928 46471
" />
<path d="M59285 49871
L59485 50471
L59685 49871
" />
<path d="M60142 50442
L60085 50471
L59971 50471
L59914 50442
L59885 50414
L59857 50357
L59857 50185
L59885 50128
L59914 50100
L59971 50071
L60085 50071
L60142 50100
" />
<path d="M60657 50442
L60600 50471
L60485 50471
L60428 50442
L60400 50414
L60371 50357
L60371 50185
L60400 50128
L60428 50100
L60485 50071
L60600 50071
L60657 50100
" />
<path d="M62542 46414
L62514 46442
L62428 46471
L62371 46471
L62285 46442
L62228 46385
L62200 46328
L62171 46214
L62171 46128
L62200 46014
L62228 45957
L62285 45900
L62371 45871
L62428 45871
L62514 45900
L62542 45928
" />
<path d="M62914 45871
L63028 45871
L63085 45900
L63142 45957
L63171 46071
L63171 46271
L63142 46385
L63085 46442
L63028 46471
L62914 46471
L62857 46442
L62800 46385
L62771 46271
L62771 46071
L62800 45957
L62857 45900
L62914 45871
" />
<path d="M63428 46471
L63428 45871
L63771 46471
L63771 45871
" />
<path d="M64057 46471
L64057 45871
L64399 46471
L64399 45871
" />
<path d="M64542 46528
L64999 46528
" />
<path d="M65257 45871
L65314 45871
L65371 45900
L65399 45928
L65428 45985
L65457 46100
L65457 46242
L65428 46357
L65399 46414
L65371 46442
L65314 46471
L65257 46471
L65199 46442
L65171 46414
L65142 46357
L65114 46242
L65114 46100
L65142 45985
L65171 45928
L65199 45900
L65257 45871
" />
<path d="M65657 45871
L66028 45871
L65828 46100
L65914 46100
L65971 46128
L65999 46157
L66028 46214
L66028 46357
L65999 46414
L65971 46442
L65914 46471
L65742 46471
L65685 46442
L65657 46414
" />
<path d="M60942 50414
L60914 50442
L60828 50471
L60771 50471
L60685 50442
L60628 50385
L60600 50328
L60571 50214
L60571 50128
L60600 50014
L60628 49957
L60685 49900
L60771 49871
L60828 49871
L60914 49900
L60942 49928
" />
<path d="M61457 50471
L61457 50157
L61428 50100
L61371 50071
L61257 50071
L61200 50100
" />
<path d="M61457 50442
L61400 50471
L61257 50471
L61200 50442
L61171 50385
L61171 50328
L61200 50271
L61257 50242
L61400 50242
L61457 50214
" />
<path d="M61742 50471
L61742 50071
" />
<path d="M61742 50185
L61771 50128
L61800 50100
L61857 50071
L61914 50071
" />
<path d="M62371 50071
L62371 50557
L62342 50614
L62314 50642
L62257 50671
L62171 50671
L62114 50642
" />
<path d="M62371 50442
L62314 50471
L62200 50471
L62142 50442
L62114 50414
L62085 50357
L62085 50185
L62114 50128
L62142 50100
L62200 50071
L62314 50071
L62371 50100
" />
<path d="M62914 50471
L62914 50157
L62885 50100
L62828 50071
L62714 50071
L62657 50100
" />
<path d="M62914 50442
L62857 50471
L62714 50471
L62657 50442
L62628 50385
L62628 50328
L62657 50271
L62714 50242
L62857 50242
L62914 50214
" />
<path d="M63914 50071
L63914 50471
" />
<path d="M63771 49842
L63628 50271
L64000 50271
" />
<path d="M64228 50242
L64685 50242
" />
<path d="M65057 50128
L65000 50100
L64971 50071
L64942 50014
L64942 49985
L64971 49928
L65000 49900
L65057 49871
L65171 49871
L65228 49900
L65257 49928
L65285 49985
L65285 50014
L65257 50071
L65228 50100
L65171 50128
L65057 50128
L65000 50157
L64971 50185
L64942 50242
L64942 50357
L64971 50414
L65000 50442
L65057 50471
L65171 50471
L65228 50442
L65257 50414
L65285 50357
L65285 50242
L65257 50185
L65228 50157
L65171 50128
" />
<path d="M66085 50471
L66028 50442
L66000 50414
L65971 50357
L65971 50185
L66000 50128
L66028 50100
L66085 50071
L66171 50071
L66228 50100
L66257 50128
L66285 50185
L66285 50357
L66257 50414
L66228 50442
L66171 50471
L66085 50471
" />
<path d="M66542 50471
L66542 49871
" />
<path d="M66800 50471
L66800 50157
L66771 50100
L66714 50071
L66628 50071
L66571 50100
L66542 50128
" />
<path d="M67085 50471
L67085 50071
" />
<path d="M67085 50128
L67114 50100
L67171 50071
L67257 50071
L67314 50100
L67342 50157
L67342 50471
" />
<path d="M67342 50157
L67371 50100
L67428 50071
L67514 50071
L67571 50100
L67600 50157
L67600 50471
" />
</g>
<g style="fill:#000000; fill-opacity:0.0; 
stroke:#000000; stroke-width:80; stroke-opacity:1; 
stroke-linecap:round; stroke-linejoin:round;">
<path d="M64616 40248
L64450 39986
" />
<path d="M64330 40248
L64330 39698
L64521 39698
L64569 39725
L64592 39751
L64616 39803
L64616 39882
L64592 39934
L64569 39960
L64521 39986
L64330 39986
" />
<path d="M65092 40248
L64807 40248
" />
<path d="M64950 40248
L64950 39698
L64902 39777
L64854 39829
L64807 39855
" />
<path d="M67248 47483
L66986 47650
" />
<path d="M67248 47769
L66698 47769
L66698 47578
L66725 47530
L66751 47507
L66803 47483
L66882 47483
L66934 47507
L66960 47530
L66986 47578
L66986 47769
" />
<path d="M66751 47292
L66725 47269
L66698 47221
L66698 47102
L66725 47054
L66751 47030
L66803 47007
L66855 47007
L66934 47030
L67248 47316
L67248 47007
" />
</g>
<g style="fill:#000000; fill-opacity:0.0; 
stroke:#000000; stroke-width:120; stroke-opacity:1; 
stroke-linecap:round; stroke-linejoin:round;">
<path d="M59342 37971
L59342 38457
L59371 38514
L59400 38542
L59457 38571
L59571 38571
L59628 38542
L59657 38514
L59685 38457
L59685 37971
" />
<path d="M60285 38571
L59942 38571
" />
<path d="M60114 38571
L60114 37971
L60057 38057
L60000 38114
L59942 38142
" />
<path d="M58171 42971
L58514 42971
" />
<path d="M58342 43571
L58342 42971
" />
<path d="M58714 43571
L58714 42971
L58857 42971
L58942 43000
L58999 43057
L59028 43114
L59057 43228
L59057 43314
L59028 43428
L58999 43485
L58942 43542
L58857 43571
L58714 43571
" />
<path d="M59285 43400
L59571 43400
" />
<path d="M59228 43571
L59428 42971
L59628 43571
" />
<path d="M59800 43028
L59828 43000
L59885 42971
L60028 42971
L60085 43000
L60114 43028
L60142 43085
L60142 43142
L60114 43228
L59771 43571
L60142 43571
" />
<path d="M60514 42971
L60571 42971
L60628 43000
L60657 43028
L60685 43085
L60714 43200
L60714 43342
L60685 43457
L60657 43514
L60628 43542
L60571 43571
L60514 43571
L60457 43542
L60428 43514
L60400 43457
L60371 43342
L60371 43200
L60400 43085
L60428 43028
L60457 43000
L60514 42971
" />
<path d="M61085 42971
L61142 42971
L61200 43000
L61228 43028
L61257 43085
L61285 43200
L61285 43342
L61257 43457
L61228 43514
L61200 43542
L61142 43571
L61085 43571
L61028 43542
L61000 43514
L60971 43457
L60942 43342
L60942 43200
L60971 43085
L61000 43028
L61028 43000
L61085 42971
" />
<path d="M61485 42971
L61857 42971
L61657 43200
L61742 43200
L61800 43228
L61828 43257
L61857 43314
L61857 43457
L61828 43514
L61800 43542
L61742 43571
L61571 43571
L61514 43542
L61485 43514
" />
<path d="M62028 42971
L62228 43571
L62428 42971
" />
<path d="M57471 42071
L57128 42071
" />
<path d="M57300 42071
L57300 41471
L57242 41557
L57185 41614
L57128 41642
" />
</g>
<g style="fill:#000000; fill-opacity:0.0; 
stroke:#000000; stroke-width:100; stroke-opacity:1; 
stroke-linecap:round; stroke-linejoin:round;">
<path d="M55150 45300
L54800 45300
" />
<path d="M55100 45700
L55900 45700
" />
<path d="M55900 45700
L55900 45650
" />
<path d="M55900 45650
L55100 45650
" />
<path d="M56100 45600
L54900 45600
" />
<circle cx="55500" cy="44800" r="1000" /> 
<path d="M56200 39650
L54600 39650
" />
<path d="M54600 39650
L54750 39600
" />
<path d="M54750 39600
L56050 39600
" />
<path d="M56050 39600
L56200 39650
" />
<circle cx="55400" cy="41000" r="1600.78" /> 
<path d="M55750 39850
L56100 39850
" />
<path d="M55800 39450
L55000 39450
" />
<path d="M55000 39500
L55800 39500
" />
<path d="M54800 39550
L56000 39550
" />
<path d="M66850 42500
L66850 44100
" />
<path d="M66750 44450
L66750 42200
" />
<path d="M66750 42200
L66750 42550
" />
<path d="M67000 43850
L67000 42800
" />
<path d="M66900 42450
L66900 44150
" />
<path d="M66800 44400
L66800 42200
" />
<path d="M66800 42200
L66800 42250
" />
<path d="M66700 44700
L66700 41900
" />
<path d="M66700 41900
L67050 42950
" />
<path d="M67050 42950
L67050 43650
" />
<path d="M67050 43650
L66700 44650
" />
<path d="M66700 44650
L66750 44500
" />
<circle cx="64500" cy="43300" r="2600" /> 
<path d="M66450 43850
L66450 44200
" />
</g>
<g style="fill:#000000; fill-opacity:0.0; 
stroke:#000000; stroke-width:120; stroke-opacity:1; 
stroke-linecap:round; stroke-linejoin:round;">
<path d="M57900 49200
L53900 49200
" />
<path d="M57900 49700
L57900 46700
" />
<path d="M57900 46700
L53900 46700
" />
<path d="M53900 46700
L53900 49700
" />
<path d="M53900 49700
L57900 49700
" />
<path d="M62000 49200
L58000 49200
" />
<path d="M62000 49700
L62000 46700
" />
<path d="M62000 46700
L58000 46700
" />
<path d="M58000 46700
L58000 49700
" />
<path d="M58000 49700
L62000 49700
" />
<path d="M66100 49200
L62100 49200
" />
<path d="M66100 49700
L66100 46700
" />
<path d="M66100 46700
L62100 46700
" />
<path d="M62100 46700
L62100 49700
" />
<path d="M62100 49700
L66100 49700
" />
<path d="M66700 40000
L66300 40000
" />
<path d="M66300 40000
L66300 40400
" />
<path d="M66300 40400
L63100 40400
" />
<path d="M63100 40400
L63100 39600
" />
<path d="M63100 39600
L66300 39600
" />
<path d="M66300 39600
L66300 40000
" />
<path d="M66300 40200
L66100 40400
" />
<path d="M62700 40000
L63100 40000
" />
<path d="M67000 45400
L67000 45800
" />
<path d="M67000 45800
L67400 45800
" />
<path d="M67400 45800
L67400 49000
" />
<path d="M67400 49000
L66600 49000
" />
<path d="M66600 49000
L66600 45800
" />
<path d="M66600 45800
L67000 45800
" />
<path d="M67200 45800
L67400 46000
" />
<path d="M67000 49400
L67000 49000
" />
</g>
<g style="fill:#000000; fill-opacity:0.0; 
stroke:#000000; stroke-width:150; stroke-opacity:1; 
stroke-linecap:round; stroke-linejoin:round;">
<path d="M61100 41000
L61900 41000
" />
<path d="M59600 41000
L60000 41000
" />
<path d="M57700 41000
L58450 41000
" />
<path d="M59200 39100
L59200 39550
" />
<path d="M60400 39100
L60400 39550
" />
<path d="M61900 39550
L61900 41000
" />
<path d="M57700 41000
L57700 39550
" />
<path d="M61900 39100
L61900 39550
" />
<path d="M61900 39550
L57700 39550
" />
<path d="M57700 39550
L57700 39100
" />
<path d="M59800 39100
L57700 39100
" />
<path d="M59800 39100
L61900 39100
" />
</g>
<g style="fill:#000000; fill-opacity:0.0; 
stroke:#000000; stroke-width:39.3701; stroke-opacity:1; 
stroke-linecap:round; stroke-linejoin:round;">
</g>
<g style="fill:#000000; fill-opacity:1.0; 
stroke:#000000; stroke-width:39.3701; stroke-opacity:1; 
stroke-linecap:round; stroke-linejoin:round;">
<polyline style="fill-rule:evenodd;"
points="55873,43926
55873,44673
55126,44673
55126,43926
55873,43926
" /> 
<circle cx="55500" cy="45300" r="373.815" /> 
<polyline style="fill-rule:evenodd;"
points="55026,42123
55026,41376
55773,41376
55773,42123
55026,42123
" /> 
<circle cx="55400" cy="40250" r="373.815" /> 
<polyline style="fill-rule:evenodd;"
points="63126,42936
63873,42936
63873,43683
63126,43683
63126,42936
" /> 
<circle cx="65500" cy="43300" r="373.815" /> 
<polyline style="fill-rule:evenodd;"
points="54419,48680
54419,47719
55380,47719
55380,48680
54419,48680
" /> 
<circle cx="56900" cy="48200" r="480.315" /> 
<polyline style="fill-rule:evenodd;"
points="58519,48680
58519,47719
59480,47719
59480,48680
58519,48680
" /> 
<circle cx="61000" cy="48200" r="480.315" /> 
<polyline style="fill-rule:evenodd;"
points="62619,48680
62619,47719
63580,47719
63580,48680
62619,48680
" /> 
<circle cx="65100" cy="48200" r="480.315" /> 
<circle cx="66700" cy="40000" r="280.315" /> 
<circle cx="62700" cy="40000" r="280.315" /> 
<circle cx="67000" cy="45400" r="280.315" /> 
<circle cx="67000" cy="49400" r="280.315" /> 
</g>
<g style="fill:#000000; fill-opacity:1.0; 
stroke:#000000; stroke-width:709; stroke-opacity:1; 
stroke-linecap:round; stroke-linejoin:round;">
<path d="M59800 41933
L59800 41658
" />
<path d="M58422 41933
L58422 41658
" />
<path d="M61178 41933
L61178 41658
" />
<path d="M60509 40752
L60509 40477
" />
<path d="M59091 40752
L59091 40477
" />
</g> 
</svg>
